<?xml version="1.0" encoding="UTF-8" standalone="no"?>
<!DOCTYPE svg PUBLIC "-//W3C//DTD SVG 1.1//EN" "http://www.w3.org/Graphics/SVG/1.1/DTD/svg11.dtd">
<svg width="100%" height="100%" viewBox="0 0 6398 570" version="1.1" xmlns="http://www.w3.org/2000/svg" xmlns:xlink="http://www.w3.org/1999/xlink" xml:space="preserve" xmlns:serif="http://www.serif.com/" style="fill-rule:evenodd;clip-rule:evenodd;stroke-linejoin:round;stroke-miterlimit:2;">
    <g transform="matrix(1,0,0,1,-501.675075,-125.523327)">
        <g transform="matrix(457,0,0,457,501.675075,592.048281)">
            <path d="M0.752,-0.58C0.744,-0.575 0.735,-0.569 0.724,-0.564C0.713,-0.558 0.702,-0.552 0.689,-0.545C0.666,-0.533 0.638,-0.519 0.605,-0.502C0.572,-0.485 0.537,-0.467 0.501,-0.447C0.464,-0.427 0.429,-0.406 0.395,-0.383C0.346,-0.351 0.308,-0.317 0.281,-0.282C0.254,-0.246 0.24,-0.208 0.24,-0.168C0.24,-0.124 0.261,-0.088 0.303,-0.06C0.346,-0.033 0.409,-0.019 0.494,-0.019C0.532,-0.019 0.571,-0.02 0.611,-0.023C0.65,-0.026 0.688,-0.029 0.723,-0.035C0.758,-0.04 0.788,-0.045 0.811,-0.051L0.811,0.006C0.788,0.01 0.759,0.014 0.726,0.018C0.693,0.022 0.656,0.025 0.618,0.027C0.579,0.029 0.538,0.03 0.497,0.03C0.452,0.03 0.411,0.026 0.373,0.019C0.336,0.012 0.303,0 0.276,-0.015C0.249,-0.03 0.228,-0.05 0.212,-0.074C0.198,-0.099 0.19,-0.128 0.19,-0.163C0.19,-0.196 0.197,-0.227 0.21,-0.256C0.223,-0.285 0.243,-0.314 0.27,-0.341C0.297,-0.367 0.329,-0.394 0.368,-0.42C0.403,-0.444 0.44,-0.466 0.477,-0.487C0.514,-0.508 0.55,-0.526 0.583,-0.543C0.616,-0.56 0.644,-0.574 0.667,-0.587C0.678,-0.594 0.689,-0.601 0.698,-0.607C0.707,-0.612 0.717,-0.619 0.726,-0.627L0.752,-0.58ZM0.269,-0.755C0.284,-0.714 0.301,-0.672 0.318,-0.632C0.335,-0.591 0.353,-0.552 0.371,-0.516C0.389,-0.481 0.406,-0.45 0.421,-0.424L0.379,-0.397C0.364,-0.423 0.347,-0.454 0.329,-0.491C0.31,-0.528 0.292,-0.567 0.273,-0.609C0.254,-0.651 0.235,-0.692 0.218,-0.733L0.269,-0.755ZM0.772,-0.762C0.781,-0.75 0.79,-0.736 0.8,-0.72C0.81,-0.704 0.82,-0.688 0.83,-0.671C0.84,-0.654 0.848,-0.638 0.855,-0.623L0.817,-0.605C0.807,-0.626 0.794,-0.65 0.778,-0.676C0.763,-0.704 0.748,-0.726 0.734,-0.745L0.772,-0.762ZM0.878,-0.799C0.887,-0.787 0.897,-0.773 0.907,-0.757C0.918,-0.74 0.928,-0.724 0.939,-0.707C0.949,-0.69 0.957,-0.675 0.963,-0.662L0.925,-0.644C0.914,-0.667 0.901,-0.691 0.886,-0.716C0.87,-0.741 0.855,-0.763 0.84,-0.782L0.878,-0.799Z" style="fill:rgb(223,209,209);fill-rule:nonzero;"/>
        </g>
        <g transform="matrix(457,0,0,457,944.965075,592.048281)">
            <path d="M0.245,-0.687C0.28,-0.682 0.32,-0.679 0.365,-0.677C0.41,-0.675 0.456,-0.674 0.504,-0.674C0.536,-0.674 0.567,-0.675 0.598,-0.676C0.629,-0.677 0.658,-0.679 0.686,-0.681C0.714,-0.684 0.739,-0.686 0.762,-0.688L0.762,-0.636C0.74,-0.635 0.715,-0.633 0.686,-0.631C0.658,-0.629 0.628,-0.627 0.597,-0.626C0.566,-0.625 0.535,-0.624 0.504,-0.624C0.455,-0.624 0.41,-0.625 0.367,-0.628C0.324,-0.63 0.284,-0.632 0.245,-0.635L0.245,-0.687ZM0.259,-0.296C0.252,-0.275 0.246,-0.255 0.242,-0.235C0.238,-0.215 0.236,-0.195 0.236,-0.176C0.236,-0.134 0.258,-0.1 0.301,-0.074C0.344,-0.049 0.408,-0.036 0.493,-0.036C0.54,-0.036 0.585,-0.038 0.628,-0.041C0.67,-0.044 0.709,-0.049 0.744,-0.054C0.779,-0.06 0.807,-0.067 0.83,-0.075L0.831,-0.021C0.81,-0.015 0.783,-0.009 0.748,-0.004C0.713,0.002 0.674,0.006 0.631,0.009C0.588,0.012 0.542,0.014 0.494,0.014C0.431,0.014 0.377,0.007 0.331,-0.006C0.285,-0.019 0.25,-0.039 0.225,-0.066C0.2,-0.093 0.187,-0.126 0.187,-0.165C0.187,-0.19 0.189,-0.213 0.194,-0.236C0.198,-0.259 0.203,-0.281 0.208,-0.302L0.259,-0.296Z" style="fill:rgb(223,209,209);fill-rule:nonzero;"/>
        </g>
        <g transform="matrix(457,0,0,457,1401.965075,592.048281)">
            <path d="M0.461,-0.661C0.486,-0.656 0.517,-0.653 0.552,-0.65C0.587,-0.648 0.624,-0.647 0.662,-0.647C0.701,-0.648 0.737,-0.649 0.772,-0.651C0.808,-0.654 0.837,-0.657 0.86,-0.661L0.86,-0.608C0.836,-0.605 0.807,-0.603 0.771,-0.602C0.736,-0.6 0.7,-0.599 0.661,-0.599C0.623,-0.599 0.586,-0.6 0.551,-0.602C0.516,-0.603 0.486,-0.605 0.461,-0.608L0.461,-0.661ZM0.475,-0.265C0.47,-0.246 0.467,-0.229 0.464,-0.213C0.461,-0.198 0.46,-0.183 0.46,-0.169C0.46,-0.157 0.462,-0.145 0.467,-0.134C0.472,-0.122 0.48,-0.111 0.493,-0.101C0.507,-0.091 0.525,-0.083 0.549,-0.077C0.574,-0.071 0.606,-0.068 0.645,-0.068C0.69,-0.068 0.733,-0.07 0.773,-0.074C0.814,-0.079 0.853,-0.085 0.891,-0.094L0.892,-0.04C0.862,-0.033 0.826,-0.028 0.784,-0.024C0.743,-0.02 0.697,-0.018 0.648,-0.018C0.565,-0.018 0.506,-0.031 0.469,-0.056C0.432,-0.081 0.413,-0.116 0.413,-0.16C0.413,-0.175 0.414,-0.191 0.417,-0.208C0.42,-0.226 0.423,-0.247 0.428,-0.27L0.475,-0.265ZM0.249,-0.744C0.247,-0.739 0.245,-0.734 0.243,-0.728C0.242,-0.721 0.24,-0.715 0.239,-0.709C0.237,-0.702 0.235,-0.696 0.234,-0.69C0.23,-0.669 0.226,-0.645 0.221,-0.62C0.215,-0.594 0.211,-0.567 0.207,-0.539C0.202,-0.512 0.198,-0.484 0.195,-0.456C0.192,-0.428 0.189,-0.401 0.187,-0.373C0.185,-0.347 0.184,-0.321 0.184,-0.297C0.184,-0.264 0.185,-0.233 0.186,-0.205C0.188,-0.177 0.191,-0.146 0.196,-0.113C0.202,-0.13 0.209,-0.149 0.216,-0.17C0.224,-0.191 0.232,-0.211 0.24,-0.232C0.247,-0.253 0.254,-0.27 0.26,-0.285L0.29,-0.262C0.282,-0.241 0.273,-0.217 0.263,-0.19C0.253,-0.163 0.244,-0.136 0.236,-0.111C0.228,-0.086 0.223,-0.066 0.22,-0.051C0.219,-0.044 0.217,-0.036 0.216,-0.028C0.215,-0.02 0.214,-0.013 0.215,-0.007C0.216,-0.002 0.218,0.02 0.219,0.024L0.173,0.028C0.163,-0.009 0.154,-0.054 0.147,-0.108C0.14,-0.163 0.137,-0.224 0.137,-0.291C0.137,-0.328 0.139,-0.365 0.143,-0.403C0.146,-0.441 0.151,-0.478 0.156,-0.514C0.161,-0.551 0.167,-0.585 0.172,-0.616C0.177,-0.647 0.181,-0.673 0.184,-0.694C0.186,-0.705 0.188,-0.715 0.189,-0.724C0.19,-0.732 0.19,-0.741 0.19,-0.749L0.249,-0.744Z" style="fill:rgb(223,209,209);fill-rule:nonzero;"/>
        </g>
        <g transform="matrix(457,0,0,457,1858.965075,592.048281)">
            <path d="M0.15,-0.778L0.198,-0.778L0.198,-0.488C0.198,-0.447 0.197,-0.403 0.195,-0.354C0.192,-0.306 0.187,-0.257 0.179,-0.207C0.171,-0.156 0.159,-0.107 0.144,-0.059C0.128,-0.011 0.107,0.034 0.081,0.075C0.078,0.072 0.074,0.069 0.069,0.066C0.064,0.062 0.058,0.059 0.053,0.057C0.048,0.053 0.043,0.051 0.039,0.049C0.064,0.01 0.084,-0.033 0.099,-0.079C0.114,-0.125 0.125,-0.172 0.132,-0.219C0.139,-0.266 0.144,-0.313 0.146,-0.359C0.149,-0.405 0.15,-0.448 0.15,-0.488L0.15,-0.778ZM0.179,-0.778L0.874,-0.778L0.874,-0.553L0.179,-0.553L0.179,-0.598L0.826,-0.598L0.826,-0.733L0.179,-0.733L0.179,-0.778ZM0.229,-0.425L0.938,-0.425L0.938,-0.38L0.229,-0.38L0.229,-0.425ZM0.318,-0.009L0.833,-0.009L0.833,0.035L0.318,0.035L0.318,-0.009ZM0.544,-0.557L0.592,-0.557L0.592,-0.227L0.544,-0.227L0.544,-0.557ZM0.293,-0.242L0.858,-0.242L0.858,0.071L0.81,0.071L0.81,-0.197L0.341,-0.197L0.341,0.074L0.293,0.074L0.293,-0.242Z" style="fill:rgb(223,209,209);fill-rule:nonzero;"/>
        </g>
        <g transform="matrix(457,0,0,457,2315.965075,592.048281)">
            <path d="M0.093,-0.651C0.112,-0.652 0.128,-0.652 0.142,-0.653C0.155,-0.654 0.167,-0.655 0.177,-0.656C0.19,-0.657 0.212,-0.659 0.242,-0.662C0.272,-0.666 0.308,-0.669 0.349,-0.673C0.39,-0.678 0.433,-0.682 0.48,-0.686C0.527,-0.69 0.573,-0.694 0.619,-0.698C0.656,-0.701 0.691,-0.704 0.723,-0.707C0.754,-0.709 0.783,-0.711 0.809,-0.712C0.835,-0.713 0.859,-0.714 0.88,-0.715L0.88,-0.664C0.861,-0.665 0.839,-0.665 0.815,-0.664C0.79,-0.663 0.766,-0.662 0.743,-0.659C0.72,-0.657 0.7,-0.653 0.683,-0.647C0.644,-0.634 0.61,-0.615 0.58,-0.59C0.55,-0.564 0.525,-0.535 0.505,-0.503C0.484,-0.47 0.469,-0.437 0.459,-0.404C0.448,-0.37 0.443,-0.338 0.443,-0.309C0.443,-0.266 0.45,-0.229 0.465,-0.198C0.479,-0.167 0.498,-0.14 0.523,-0.119C0.548,-0.098 0.575,-0.08 0.606,-0.067C0.637,-0.054 0.669,-0.044 0.703,-0.037C0.736,-0.031 0.769,-0.028 0.801,-0.027L0.782,0.023C0.748,0.022 0.713,0.018 0.677,0.01C0.641,0.002 0.606,-0.01 0.572,-0.026C0.538,-0.042 0.508,-0.062 0.481,-0.088C0.454,-0.113 0.433,-0.142 0.417,-0.177C0.402,-0.212 0.394,-0.252 0.394,-0.297C0.394,-0.352 0.404,-0.402 0.424,-0.449C0.444,-0.496 0.47,-0.537 0.502,-0.572C0.534,-0.607 0.568,-0.633 0.603,-0.652C0.58,-0.65 0.552,-0.647 0.517,-0.643C0.482,-0.64 0.445,-0.636 0.406,-0.632C0.367,-0.628 0.327,-0.624 0.288,-0.619C0.249,-0.614 0.212,-0.61 0.179,-0.606C0.146,-0.601 0.12,-0.597 0.099,-0.592L0.093,-0.651Z" style="fill:rgb(223,209,209);fill-rule:nonzero;"/>
        </g>
        <g transform="matrix(457,0,0,457,2750.115075,592.048281)">
            <path d="M0.427,-0.777C0.424,-0.766 0.422,-0.756 0.421,-0.748C0.42,-0.739 0.418,-0.729 0.417,-0.718C0.414,-0.697 0.411,-0.672 0.408,-0.643C0.404,-0.614 0.4,-0.582 0.396,-0.549C0.391,-0.516 0.387,-0.482 0.383,-0.447C0.379,-0.412 0.375,-0.378 0.371,-0.345C0.368,-0.311 0.365,-0.281 0.362,-0.254C0.36,-0.227 0.359,-0.204 0.359,-0.185C0.359,-0.132 0.374,-0.09 0.404,-0.059C0.433,-0.028 0.479,-0.012 0.54,-0.012C0.593,-0.012 0.64,-0.019 0.68,-0.033C0.72,-0.047 0.751,-0.068 0.774,-0.096C0.797,-0.123 0.808,-0.156 0.808,-0.195C0.808,-0.228 0.799,-0.264 0.781,-0.301C0.763,-0.339 0.734,-0.374 0.695,-0.405L0.752,-0.416C0.787,-0.381 0.813,-0.345 0.831,-0.309C0.849,-0.273 0.858,-0.233 0.858,-0.19C0.858,-0.141 0.845,-0.1 0.818,-0.066C0.791,-0.032 0.753,-0.006 0.706,0.011C0.658,0.028 0.603,0.037 0.541,0.037C0.5,0.037 0.462,0.03 0.427,0.017C0.392,0.003 0.363,-0.02 0.342,-0.051C0.321,-0.082 0.31,-0.125 0.31,-0.178C0.31,-0.2 0.311,-0.228 0.315,-0.263C0.318,-0.298 0.322,-0.336 0.327,-0.377C0.332,-0.418 0.337,-0.46 0.343,-0.503C0.348,-0.545 0.353,-0.585 0.357,-0.623C0.362,-0.661 0.365,-0.694 0.367,-0.721C0.369,-0.735 0.37,-0.747 0.37,-0.756C0.37,-0.765 0.369,-0.774 0.368,-0.781L0.427,-0.777ZM0.128,-0.639C0.156,-0.63 0.186,-0.623 0.22,-0.618C0.253,-0.612 0.286,-0.608 0.319,-0.605C0.352,-0.602 0.382,-0.6 0.409,-0.6C0.447,-0.6 0.483,-0.601 0.517,-0.603C0.552,-0.605 0.585,-0.608 0.617,-0.612L0.616,-0.563C0.582,-0.56 0.549,-0.558 0.517,-0.556C0.485,-0.555 0.449,-0.554 0.409,-0.554C0.382,-0.554 0.352,-0.556 0.319,-0.559C0.286,-0.562 0.252,-0.567 0.218,-0.572C0.184,-0.577 0.153,-0.584 0.124,-0.591L0.128,-0.639ZM0.102,-0.39C0.132,-0.379 0.164,-0.371 0.199,-0.364C0.233,-0.358 0.267,-0.354 0.301,-0.351C0.336,-0.348 0.368,-0.347 0.397,-0.347C0.434,-0.347 0.469,-0.348 0.504,-0.35C0.538,-0.351 0.573,-0.355 0.61,-0.36L0.609,-0.31C0.572,-0.306 0.537,-0.303 0.504,-0.302C0.471,-0.301 0.437,-0.3 0.402,-0.3C0.354,-0.3 0.303,-0.303 0.248,-0.309C0.194,-0.315 0.144,-0.325 0.099,-0.34L0.102,-0.39Z" style="fill:rgb(223,209,209);fill-rule:nonzero;"/>
        </g>
        <g transform="matrix(457,0,0,457,3193.405075,592.048281)">
            <path d="M0.284,0.048C0.261,0.021 0.237,-0.007 0.211,-0.034C0.186,-0.06 0.16,-0.086 0.134,-0.111C0.108,-0.135 0.083,-0.157 0.059,-0.176L0.1,-0.213C0.125,-0.194 0.15,-0.172 0.176,-0.147C0.203,-0.122 0.229,-0.096 0.255,-0.07C0.281,-0.043 0.306,-0.016 0.329,0.01L0.284,0.048Z" style="fill:rgb(223,209,209);fill-rule:nonzero;"/>
        </g>
        <g transform="matrix(457,0,0,457,3650.405075,592.048281)">
            <path d="M0.084,-0.507C0.102,-0.51 0.119,-0.514 0.135,-0.519C0.15,-0.524 0.168,-0.529 0.187,-0.534C0.209,-0.541 0.237,-0.551 0.271,-0.562C0.304,-0.573 0.341,-0.585 0.38,-0.596C0.419,-0.607 0.458,-0.617 0.498,-0.625C0.539,-0.632 0.577,-0.636 0.614,-0.636C0.667,-0.636 0.714,-0.626 0.757,-0.607C0.799,-0.587 0.833,-0.558 0.858,-0.521C0.883,-0.484 0.896,-0.44 0.896,-0.387C0.896,-0.338 0.887,-0.294 0.868,-0.256C0.849,-0.218 0.823,-0.185 0.789,-0.158C0.756,-0.13 0.717,-0.107 0.672,-0.088C0.627,-0.07 0.579,-0.056 0.526,-0.045C0.473,-0.034 0.419,-0.027 0.362,-0.024L0.34,-0.078C0.404,-0.08 0.466,-0.087 0.525,-0.099C0.585,-0.11 0.639,-0.128 0.687,-0.152C0.735,-0.177 0.773,-0.208 0.8,-0.246C0.828,-0.285 0.842,-0.332 0.842,-0.388C0.842,-0.425 0.833,-0.459 0.815,-0.489C0.797,-0.519 0.771,-0.543 0.737,-0.561C0.702,-0.58 0.661,-0.589 0.613,-0.589C0.578,-0.589 0.541,-0.585 0.501,-0.577C0.46,-0.569 0.42,-0.559 0.379,-0.546C0.338,-0.534 0.3,-0.521 0.264,-0.508C0.228,-0.495 0.197,-0.483 0.17,-0.472C0.142,-0.461 0.122,-0.454 0.109,-0.449L0.084,-0.507Z" style="fill:rgb(223,209,209);fill-rule:nonzero;"/>
        </g>
        <g transform="matrix(457,0,0,457,4107.405075,592.048281)">
            <path d="M0.105,-0.616C0.122,-0.614 0.139,-0.612 0.158,-0.612C0.177,-0.611 0.198,-0.61 0.222,-0.61C0.255,-0.61 0.291,-0.611 0.328,-0.614C0.365,-0.617 0.403,-0.622 0.444,-0.63C0.484,-0.637 0.525,-0.648 0.567,-0.661L0.569,-0.611C0.534,-0.602 0.497,-0.593 0.458,-0.586C0.419,-0.579 0.38,-0.573 0.34,-0.57C0.3,-0.566 0.26,-0.564 0.221,-0.564C0.204,-0.564 0.185,-0.564 0.165,-0.565C0.144,-0.565 0.126,-0.565 0.109,-0.566L0.105,-0.616ZM0.439,-0.787C0.435,-0.772 0.43,-0.752 0.425,-0.729C0.42,-0.705 0.413,-0.68 0.407,-0.655C0.4,-0.63 0.393,-0.606 0.386,-0.585C0.369,-0.537 0.349,-0.487 0.324,-0.434C0.299,-0.381 0.273,-0.331 0.245,-0.282C0.217,-0.233 0.189,-0.19 0.161,-0.154L0.11,-0.181C0.132,-0.206 0.154,-0.236 0.176,-0.269C0.199,-0.302 0.22,-0.337 0.24,-0.373C0.26,-0.411 0.278,-0.447 0.295,-0.483C0.312,-0.52 0.325,-0.553 0.336,-0.584C0.346,-0.613 0.356,-0.647 0.365,-0.685C0.374,-0.724 0.38,-0.76 0.381,-0.793L0.439,-0.787ZM0.676,-0.48C0.675,-0.459 0.675,-0.442 0.674,-0.428C0.673,-0.415 0.673,-0.4 0.674,-0.384C0.675,-0.367 0.675,-0.345 0.676,-0.32C0.678,-0.295 0.679,-0.268 0.68,-0.239C0.681,-0.21 0.683,-0.183 0.683,-0.157C0.684,-0.13 0.685,-0.108 0.685,-0.09C0.685,-0.066 0.679,-0.044 0.667,-0.024C0.656,-0.003 0.638,0.013 0.614,0.025C0.59,0.037 0.559,0.043 0.521,0.043C0.487,0.043 0.456,0.038 0.428,0.03C0.4,0.021 0.378,0.006 0.36,-0.013C0.343,-0.032 0.335,-0.057 0.335,-0.088C0.335,-0.118 0.344,-0.143 0.361,-0.164C0.378,-0.184 0.401,-0.199 0.43,-0.209C0.459,-0.22 0.489,-0.225 0.521,-0.225C0.576,-0.225 0.627,-0.217 0.672,-0.202C0.717,-0.187 0.758,-0.167 0.794,-0.144C0.831,-0.121 0.863,-0.098 0.89,-0.075L0.862,-0.031C0.841,-0.048 0.819,-0.066 0.795,-0.085C0.771,-0.103 0.745,-0.119 0.716,-0.134C0.687,-0.149 0.657,-0.161 0.625,-0.17C0.592,-0.178 0.558,-0.183 0.521,-0.183C0.48,-0.183 0.446,-0.174 0.42,-0.157C0.395,-0.14 0.382,-0.118 0.382,-0.092C0.382,-0.065 0.393,-0.044 0.415,-0.028C0.436,-0.012 0.47,-0.004 0.516,-0.004C0.547,-0.004 0.571,-0.009 0.589,-0.018C0.607,-0.027 0.62,-0.04 0.628,-0.056C0.635,-0.071 0.639,-0.088 0.639,-0.105C0.639,-0.127 0.639,-0.153 0.638,-0.184C0.636,-0.215 0.635,-0.247 0.634,-0.282C0.632,-0.317 0.63,-0.351 0.629,-0.386C0.628,-0.42 0.626,-0.451 0.625,-0.48L0.676,-0.48ZM0.892,-0.469C0.875,-0.484 0.854,-0.501 0.827,-0.517C0.8,-0.534 0.773,-0.551 0.745,-0.566C0.717,-0.581 0.692,-0.594 0.671,-0.604L0.696,-0.642C0.714,-0.634 0.734,-0.624 0.756,-0.614C0.777,-0.603 0.799,-0.591 0.82,-0.579C0.841,-0.566 0.86,-0.554 0.878,-0.542C0.896,-0.53 0.911,-0.52 0.922,-0.511L0.892,-0.469Z" style="fill:rgb(223,209,209);fill-rule:nonzero;"/>
        </g>
        <g transform="matrix(457,0,0,457,4564.405075,592.048281)">
            <path d="M0.406,-0.773C0.405,-0.766 0.404,-0.759 0.403,-0.752C0.402,-0.744 0.4,-0.736 0.398,-0.728C0.397,-0.718 0.394,-0.702 0.391,-0.68C0.387,-0.658 0.383,-0.634 0.379,-0.609C0.374,-0.583 0.369,-0.558 0.364,-0.535C0.357,-0.507 0.348,-0.476 0.339,-0.442C0.329,-0.407 0.318,-0.371 0.305,-0.333C0.293,-0.294 0.279,-0.255 0.263,-0.215C0.247,-0.175 0.229,-0.135 0.21,-0.095C0.191,-0.054 0.169,-0.015 0.145,0.024L0.093,0.003C0.115,-0.026 0.136,-0.06 0.155,-0.098C0.175,-0.135 0.193,-0.174 0.21,-0.215C0.227,-0.257 0.242,-0.297 0.256,-0.337C0.269,-0.376 0.281,-0.413 0.29,-0.447C0.3,-0.481 0.308,-0.51 0.313,-0.535C0.322,-0.572 0.33,-0.612 0.337,-0.655C0.343,-0.699 0.346,-0.74 0.347,-0.779L0.406,-0.773ZM0.75,-0.649C0.766,-0.63 0.783,-0.605 0.8,-0.575C0.818,-0.545 0.836,-0.513 0.854,-0.48C0.871,-0.447 0.887,-0.414 0.902,-0.383C0.917,-0.352 0.928,-0.324 0.937,-0.301L0.889,-0.277C0.881,-0.302 0.87,-0.33 0.857,-0.361C0.844,-0.393 0.828,-0.426 0.811,-0.459C0.794,-0.492 0.776,-0.524 0.758,-0.553C0.74,-0.582 0.722,-0.607 0.705,-0.626L0.75,-0.649ZM0.073,-0.545C0.087,-0.544 0.1,-0.544 0.113,-0.544C0.125,-0.544 0.138,-0.544 0.152,-0.545C0.167,-0.546 0.186,-0.547 0.209,-0.548C0.233,-0.55 0.259,-0.552 0.287,-0.554C0.314,-0.557 0.342,-0.559 0.369,-0.561C0.397,-0.564 0.423,-0.566 0.446,-0.568C0.468,-0.569 0.486,-0.57 0.498,-0.57C0.525,-0.57 0.55,-0.566 0.573,-0.558C0.596,-0.55 0.614,-0.535 0.629,-0.512C0.643,-0.49 0.65,-0.457 0.65,-0.414C0.65,-0.374 0.648,-0.331 0.644,-0.287C0.64,-0.242 0.634,-0.199 0.626,-0.158C0.617,-0.117 0.606,-0.083 0.591,-0.056C0.576,-0.023 0.557,-0.002 0.534,0.008C0.511,0.018 0.485,0.023 0.456,0.023C0.437,0.023 0.417,0.021 0.396,0.018C0.374,0.015 0.355,0.011 0.34,0.008L0.332,-0.047C0.347,-0.042 0.361,-0.038 0.377,-0.036C0.392,-0.033 0.406,-0.03 0.419,-0.029C0.433,-0.028 0.445,-0.027 0.454,-0.027C0.474,-0.027 0.492,-0.03 0.508,-0.036C0.524,-0.043 0.538,-0.058 0.549,-0.083C0.561,-0.108 0.571,-0.139 0.578,-0.175C0.585,-0.211 0.591,-0.249 0.595,-0.289C0.599,-0.33 0.601,-0.369 0.601,-0.407C0.601,-0.44 0.596,-0.465 0.587,-0.482C0.577,-0.499 0.564,-0.51 0.547,-0.516C0.53,-0.522 0.511,-0.525 0.489,-0.525C0.471,-0.525 0.447,-0.524 0.417,-0.521C0.387,-0.519 0.355,-0.516 0.321,-0.513C0.286,-0.51 0.254,-0.507 0.225,-0.504C0.196,-0.501 0.173,-0.498 0.157,-0.497C0.147,-0.496 0.135,-0.495 0.12,-0.493C0.104,-0.491 0.091,-0.489 0.079,-0.487L0.073,-0.545ZM0.779,-0.798C0.788,-0.787 0.797,-0.773 0.806,-0.757C0.816,-0.74 0.826,-0.724 0.837,-0.707C0.847,-0.69 0.856,-0.674 0.863,-0.66L0.823,-0.642C0.817,-0.655 0.809,-0.67 0.799,-0.688C0.79,-0.705 0.78,-0.721 0.769,-0.738C0.759,-0.755 0.749,-0.769 0.74,-0.781L0.779,-0.798ZM0.884,-0.835C0.893,-0.823 0.903,-0.809 0.914,-0.792C0.925,-0.776 0.935,-0.76 0.946,-0.743C0.956,-0.726 0.964,-0.711 0.971,-0.698L0.931,-0.68C0.92,-0.703 0.906,-0.727 0.892,-0.752C0.877,-0.777 0.861,-0.799 0.846,-0.818L0.884,-0.835Z" style="fill:rgb(223,209,209);fill-rule:nonzero;"/>
        </g>
        <g transform="matrix(457,0,0,457,5021.405075,592.048281)">
            <path d="M0.171,-0.385C0.186,-0.388 0.2,-0.392 0.212,-0.396C0.226,-0.399 0.24,-0.403 0.257,-0.408C0.275,-0.414 0.298,-0.422 0.326,-0.431C0.353,-0.44 0.383,-0.45 0.416,-0.459C0.448,-0.468 0.48,-0.476 0.513,-0.482C0.546,-0.489 0.577,-0.492 0.606,-0.492C0.651,-0.492 0.69,-0.484 0.725,-0.467C0.76,-0.45 0.787,-0.427 0.808,-0.396C0.829,-0.365 0.839,-0.328 0.839,-0.285C0.839,-0.235 0.827,-0.192 0.804,-0.157C0.781,-0.121 0.749,-0.091 0.708,-0.068C0.667,-0.044 0.62,-0.025 0.567,-0.013C0.514,0 0.457,0.009 0.397,0.012L0.376,-0.038C0.429,-0.039 0.479,-0.045 0.528,-0.054C0.578,-0.063 0.622,-0.078 0.661,-0.097C0.7,-0.116 0.731,-0.141 0.754,-0.173C0.777,-0.204 0.788,-0.241 0.788,-0.286C0.788,-0.317 0.78,-0.344 0.765,-0.368C0.75,-0.392 0.728,-0.411 0.701,-0.425C0.674,-0.439 0.641,-0.446 0.604,-0.446C0.579,-0.446 0.55,-0.443 0.517,-0.436C0.485,-0.43 0.452,-0.422 0.419,-0.411C0.386,-0.4 0.354,-0.39 0.324,-0.379C0.293,-0.368 0.267,-0.359 0.244,-0.35C0.221,-0.341 0.205,-0.335 0.194,-0.33L0.171,-0.385Z" style="fill:rgb(223,209,209);fill-rule:nonzero;"/>
        </g>
        <g transform="matrix(457,0,0,457,5455.555075,592.048281)">
            <path d="M0.093,-0.651C0.112,-0.652 0.128,-0.652 0.142,-0.653C0.155,-0.654 0.167,-0.655 0.177,-0.656C0.19,-0.657 0.212,-0.659 0.242,-0.662C0.272,-0.666 0.308,-0.669 0.349,-0.673C0.39,-0.678 0.433,-0.682 0.48,-0.686C0.527,-0.69 0.573,-0.694 0.619,-0.698C0.656,-0.701 0.691,-0.704 0.723,-0.707C0.754,-0.709 0.783,-0.711 0.809,-0.712C0.835,-0.713 0.859,-0.714 0.88,-0.715L0.88,-0.664C0.861,-0.665 0.839,-0.665 0.815,-0.664C0.79,-0.663 0.766,-0.662 0.743,-0.659C0.72,-0.657 0.7,-0.653 0.683,-0.647C0.644,-0.634 0.61,-0.615 0.58,-0.59C0.55,-0.564 0.525,-0.535 0.505,-0.503C0.484,-0.47 0.469,-0.437 0.459,-0.404C0.448,-0.37 0.443,-0.338 0.443,-0.309C0.443,-0.266 0.45,-0.229 0.465,-0.198C0.479,-0.167 0.498,-0.14 0.523,-0.119C0.548,-0.098 0.575,-0.08 0.606,-0.067C0.637,-0.054 0.669,-0.044 0.703,-0.037C0.736,-0.031 0.769,-0.028 0.801,-0.027L0.782,0.023C0.748,0.022 0.713,0.018 0.677,0.01C0.641,0.002 0.606,-0.01 0.572,-0.026C0.538,-0.042 0.508,-0.062 0.481,-0.088C0.454,-0.113 0.433,-0.142 0.417,-0.177C0.402,-0.212 0.394,-0.252 0.394,-0.297C0.394,-0.352 0.404,-0.402 0.424,-0.449C0.444,-0.496 0.47,-0.537 0.502,-0.572C0.534,-0.607 0.568,-0.633 0.603,-0.652C0.58,-0.65 0.552,-0.647 0.517,-0.643C0.482,-0.64 0.445,-0.636 0.406,-0.632C0.367,-0.628 0.327,-0.624 0.288,-0.619C0.249,-0.614 0.212,-0.61 0.179,-0.606C0.146,-0.601 0.12,-0.597 0.099,-0.592L0.093,-0.651Z" style="fill:rgb(223,209,209);fill-rule:nonzero;"/>
        </g>
        <g transform="matrix(457,0,0,457,5912.555075,592.048281)">
            <path d="M0.202,-0.688C0.201,-0.682 0.2,-0.674 0.199,-0.664C0.198,-0.655 0.198,-0.645 0.197,-0.634C0.196,-0.623 0.196,-0.614 0.195,-0.606C0.195,-0.585 0.195,-0.561 0.196,-0.533C0.196,-0.506 0.197,-0.476 0.198,-0.446C0.199,-0.415 0.2,-0.384 0.203,-0.355C0.209,-0.295 0.219,-0.243 0.234,-0.198C0.249,-0.152 0.267,-0.118 0.288,-0.093C0.308,-0.068 0.332,-0.056 0.357,-0.056C0.37,-0.056 0.383,-0.061 0.396,-0.072C0.409,-0.084 0.421,-0.098 0.432,-0.118C0.444,-0.136 0.455,-0.159 0.466,-0.184C0.476,-0.209 0.485,-0.236 0.492,-0.263L0.532,-0.222C0.513,-0.167 0.494,-0.123 0.475,-0.09C0.455,-0.057 0.435,-0.034 0.416,-0.02C0.396,-0.006 0.376,0.001 0.356,0.001C0.327,0.001 0.299,-0.01 0.272,-0.033C0.245,-0.055 0.221,-0.091 0.2,-0.142C0.179,-0.192 0.164,-0.259 0.155,-0.344C0.152,-0.372 0.15,-0.403 0.148,-0.436C0.147,-0.47 0.146,-0.502 0.145,-0.533C0.144,-0.564 0.144,-0.589 0.144,-0.608C0.144,-0.618 0.144,-0.632 0.144,-0.649C0.143,-0.667 0.142,-0.681 0.139,-0.69L0.202,-0.688ZM0.735,-0.657C0.752,-0.634 0.768,-0.608 0.783,-0.579C0.799,-0.55 0.814,-0.52 0.827,-0.487C0.84,-0.454 0.853,-0.421 0.864,-0.386C0.874,-0.351 0.884,-0.315 0.891,-0.28C0.898,-0.244 0.904,-0.208 0.907,-0.172L0.857,-0.151C0.852,-0.199 0.845,-0.246 0.835,-0.292C0.824,-0.338 0.812,-0.382 0.797,-0.424C0.782,-0.466 0.765,-0.505 0.747,-0.542C0.728,-0.579 0.707,-0.611 0.686,-0.639L0.735,-0.657Z" style="fill:rgb(223,209,209);fill-rule:nonzero;"/>
        </g>
        <g transform="matrix(457,0,0,457,6369.555075,592.048281)">
            <path d="M0.249,-0.722C0.258,-0.721 0.269,-0.721 0.28,-0.721C0.29,-0.72 0.3,-0.72 0.308,-0.72C0.318,-0.72 0.335,-0.72 0.358,-0.721C0.382,-0.721 0.409,-0.722 0.44,-0.723C0.47,-0.724 0.5,-0.726 0.53,-0.727C0.561,-0.728 0.588,-0.729 0.611,-0.731C0.634,-0.732 0.651,-0.732 0.662,-0.733C0.673,-0.735 0.682,-0.736 0.688,-0.737C0.693,-0.738 0.698,-0.739 0.703,-0.74L0.739,-0.701C0.731,-0.696 0.723,-0.69 0.715,-0.683C0.706,-0.677 0.698,-0.67 0.689,-0.663C0.678,-0.654 0.66,-0.639 0.638,-0.62C0.615,-0.6 0.589,-0.578 0.56,-0.554C0.532,-0.53 0.504,-0.506 0.477,-0.482C0.449,-0.459 0.424,-0.438 0.402,-0.419C0.429,-0.429 0.456,-0.436 0.484,-0.44C0.513,-0.443 0.54,-0.445 0.567,-0.445C0.622,-0.445 0.67,-0.435 0.712,-0.416C0.753,-0.396 0.786,-0.369 0.809,-0.336C0.832,-0.302 0.844,-0.263 0.844,-0.22C0.844,-0.166 0.83,-0.12 0.8,-0.082C0.771,-0.044 0.732,-0.015 0.682,0.005C0.632,0.025 0.575,0.035 0.51,0.035C0.465,0.035 0.428,0.029 0.398,0.018C0.367,0.006 0.344,-0.01 0.329,-0.029C0.313,-0.048 0.305,-0.07 0.305,-0.095C0.305,-0.115 0.311,-0.134 0.322,-0.151C0.333,-0.169 0.349,-0.183 0.37,-0.194C0.392,-0.205 0.416,-0.21 0.444,-0.21C0.488,-0.21 0.524,-0.201 0.552,-0.182C0.581,-0.164 0.603,-0.14 0.618,-0.112C0.633,-0.083 0.642,-0.052 0.645,-0.019L0.599,-0.009C0.595,-0.056 0.58,-0.094 0.553,-0.124C0.526,-0.155 0.49,-0.17 0.443,-0.17C0.418,-0.17 0.397,-0.163 0.379,-0.149C0.361,-0.135 0.352,-0.118 0.352,-0.098C0.352,-0.071 0.366,-0.049 0.395,-0.034C0.423,-0.019 0.459,-0.011 0.504,-0.011C0.561,-0.011 0.611,-0.019 0.654,-0.035C0.698,-0.051 0.732,-0.075 0.757,-0.106C0.782,-0.137 0.794,-0.176 0.794,-0.221C0.794,-0.255 0.784,-0.286 0.764,-0.314C0.744,-0.341 0.716,-0.363 0.681,-0.38C0.646,-0.396 0.605,-0.404 0.559,-0.404C0.516,-0.404 0.477,-0.4 0.443,-0.392C0.409,-0.384 0.377,-0.372 0.348,-0.356C0.319,-0.34 0.289,-0.32 0.26,-0.294C0.23,-0.27 0.198,-0.24 0.163,-0.207L0.125,-0.244C0.148,-0.263 0.172,-0.284 0.199,-0.306C0.226,-0.328 0.252,-0.35 0.279,-0.371C0.305,-0.393 0.329,-0.413 0.352,-0.432C0.374,-0.452 0.392,-0.467 0.406,-0.479C0.42,-0.49 0.438,-0.505 0.46,-0.524C0.482,-0.543 0.505,-0.563 0.53,-0.584C0.555,-0.605 0.578,-0.624 0.6,-0.643C0.621,-0.662 0.638,-0.677 0.651,-0.688C0.64,-0.687 0.623,-0.687 0.6,-0.686C0.577,-0.685 0.55,-0.684 0.521,-0.682C0.492,-0.681 0.464,-0.679 0.435,-0.678C0.406,-0.678 0.381,-0.676 0.358,-0.675C0.335,-0.675 0.319,-0.674 0.308,-0.673C0.299,-0.672 0.289,-0.672 0.28,-0.671C0.271,-0.67 0.261,-0.669 0.25,-0.668L0.249,-0.722Z" style="fill:rgb(223,209,209);fill-rule:nonzero;"/>
        </g>
        <g transform="matrix(457,0,0,457,6826.555075,592.048281)">
        </g>
    </g>
</svg>
