<?xml version="1.0" encoding="UTF-8" standalone="no"?>
<!DOCTYPE svg PUBLIC "-//W3C//DTD SVG 1.1//EN" "http://www.w3.org/Graphics/SVG/1.1/DTD/svg11.dtd">
<svg width="100%" height="100%" viewBox="0 0 4732 3012" version="1.1" xmlns="http://www.w3.org/2000/svg" xmlns:xlink="http://www.w3.org/1999/xlink" xml:space="preserve" xmlns:serif="http://www.serif.com/" style="fill-rule:evenodd;clip-rule:evenodd;stroke-linejoin:round;stroke-miterlimit:10;">
    <g>
        <rect x="0" y="0" width="4732" height="3012" style="fill-opacity:0;"/>
        <g transform="matrix(1,0,0,1,-841.82212,0)">
            <rect x="976.235" y="116.236" width="555.905" height="1111.811" style="fill-opacity:0;"/>
        </g>
        <g transform="matrix(1,0,0,1,-841.82212,0)">
            <rect x="976.235" y="116.236" width="555.905" height="1111.811" style="fill:none;stroke:white;stroke-width:24px;"/>
        </g>
        <g transform="matrix(1,0,0,1,-841.82212,0)">
            <path d="M1570.813,828.923L1057.238,1041.679L1269.994,1555.254L1783.569,1342.498L1570.813,828.923Z" style="fill-opacity:0;"/>
        </g>
        <g transform="matrix(1,0,0,1,-841.82212,0)">
            <path d="M1570.813,828.923L1057.238,1041.679L1269.994,1555.254L1783.569,1342.498L1570.813,828.923Z" style="fill:none;stroke:white;stroke-width:24px;"/>
        </g>
        <g transform="matrix(1,0,0,1,-841.82212,0)">
            <path d="M1570.813,828.923L1057.238,1041.679L1269.994,1555.254L1783.569,1342.498L1570.813,828.923Z" style="fill-opacity:0;"/>
        </g>
        <g transform="matrix(1,0,0,1,-841.82212,0)">
            <path d="M1570.813,828.923L1057.238,1041.679L1269.994,1555.254L1783.569,1342.498L1570.813,828.923Z" style="fill:none;stroke:white;stroke-width:24px;"/>
        </g>
        <g transform="matrix(1,0,0,1,-841.82212,0)">
            <path d="M1532.141,2895.764L1532.141,1783.953L976.236,2895.764L1532.141,2895.764Z" style="fill-opacity:0;"/>
        </g>
        <g transform="matrix(1,0,0,1,-841.82212,0)">
            <path d="M1532.141,2895.764L1532.141,1783.953L976.236,2895.764L1532.141,2895.764Z" style="fill:none;stroke:white;stroke-width:24px;"/>
        </g>
        <g transform="matrix(1,0,0,1,-841.82212,0)">
            <path d="M1925.214,1553.668L2318.316,1946.739L1925.245,2339.841L1532.143,1946.77L1925.214,1553.668Z" style="fill-opacity:0;"/>
        </g>
        <g transform="matrix(1,0,0,1,-841.82212,0)">
            <path d="M1925.214,1553.668L2318.316,1946.739L1925.245,2339.841L1532.143,1946.77L1925.214,1553.668Z" style="fill:none;stroke:white;stroke-width:24px;"/>
        </g>
        <g transform="matrix(1,0,0,1,-841.82212,0)">
            <path d="M2474.967,2062.798L2988.542,2275.554L2775.786,2789.129L2262.211,2576.373L2474.967,2062.798Z" style="fill-opacity:0;"/>
        </g>
        <g transform="matrix(1,0,0,1,-841.82212,0)">
            <path d="M2474.967,2062.798L2988.542,2275.554L2775.786,2789.129L2262.211,2576.373L2474.967,2062.798Z" style="fill:none;stroke:white;stroke-width:24px;"/>
        </g>
        <g transform="matrix(1,0,0,1,-841.82212,0)">
            <path d="M3477.812,394.189L2643.953,394.189" style="fill:none;"/>
        </g>
        <g transform="matrix(1,0,0,1,-841.82212,0)">
            <path d="M3477.812,394.189L2643.953,394.189" style="fill:none;stroke:white;stroke-width:24px;"/>
        </g>
        <g transform="matrix(1,0,0,1,-841.82212,0)">
            <path d="M3477.812,394.189L3477.812,1228.047" style="fill:none;"/>
        </g>
        <g transform="matrix(1,0,0,1,-841.82212,0)">
            <path d="M3477.812,394.189L3477.812,1228.047" style="fill:none;stroke:white;stroke-width:24px;"/>
        </g>
        <g transform="matrix(1,0,0,1,-841.82212,0)">
            <rect x="2643.953" y="1783.953" width="1111.811" height="1111.811" style="fill-opacity:0;"/>
        </g>
        <g transform="matrix(1,0,0,1,-841.82212,0)">
            <rect x="2643.953" y="1783.953" width="1111.811" height="1111.811" style="fill:none;stroke:white;stroke-width:24px;"/>
        </g>
        <g transform="matrix(1,0,0,1,-841.82212,0)">
            <rect x="976.235" y="116.236" width="555.905" height="1111.811" style="fill-opacity:0;"/>
        </g>
        <g transform="matrix(1,0,0,1,-841.82212,0)">
            <rect x="976.235" y="116.236" width="555.905" height="1111.811" style="fill:none;stroke:white;stroke-width:24px;"/>
        </g>
        <g transform="matrix(1,0,0,1,-841.82212,0)">
            <rect x="976.236" y="1228.047" width="555.906" height="1667.716" style="fill-opacity:0;"/>
        </g>
        <g transform="matrix(1,0,0,1,-841.82212,0)">
            <rect x="976.236" y="1228.047" width="555.906" height="1667.716" style="fill:none;stroke:white;stroke-width:24px;"/>
        </g>
        <g transform="matrix(1,0,0,1,-841.82212,0)">
            <rect x="3470.328" y="382.166" width="19.465" height="18.677" style="fill:white;"/>
        </g>
        <g transform="matrix(1,0,0,1,-841.82212,0)">
            <rect x="3470.328" y="382.166" width="19.465" height="18.677" style="fill:none;stroke:white;stroke-width:1px;"/>
        </g>
    </g>
</svg>
